<svg xmlns="http://www.w3.org/2000/svg" xmlns:xlink="http://www.w3.org/1999/xlink" id="terminal" baseProfile="full" viewBox="0 0 984 308" width="984" version="1.1">
    <defs>
        <termtosvg:template_settings xmlns:termtosvg="https://github.com/nbedos/termtosvg">
            <termtosvg:screen_geometry columns="123" rows="18"/>
            <termtosvg:animation type="css"/>
        </termtosvg:template_settings>
        <style type="text/css" id="generated-style"><![CDATA[#screen {
                font-family: 'DejaVu Sans Mono', monospace;
                font-style: normal;
                font-size: 14px;
            }

        text {
            dominant-baseline: text-before-edge;
            white-space: pre;
        }
    
            :root {
                --animation-duration: 10826ms;
            }

            @keyframes roll {
                0.000%{transform:translateY(0px)}
0.185%{transform:translateY(-340px)}
0.203%{transform:translateY(-680px)}
12.969%{transform:translateY(-1020px)}
13.708%{transform:translateY(-1360px)}
14.816%{transform:translateY(-1700px)}
16.737%{transform:translateY(-2040px)}
18.299%{transform:translateY(-2380px)}
21.180%{transform:translateY(-2720px)}
21.190%{transform:translateY(-3060px)}
21.208%{transform:translateY(-3400px)}
21.236%{transform:translateY(-3740px)}
21.245%{transform:translateY(-4080px)}
21.458%{transform:translateY(-4420px)}
21.485%{transform:translateY(-4760px)}
30.103%{transform:translateY(-5100px)}
31.378%{transform:translateY(-5440px)}
32.330%{transform:translateY(-5780px)}
33.429%{transform:translateY(-6120px)}
34.325%{transform:translateY(-6460px)}
37.355%{transform:translateY(-6800px)}
37.382%{transform:translateY(-7140px)}
38.565%{transform:translateY(-7480px)}
39.137%{transform:translateY(-7820px)}
39.396%{transform:translateY(-8160px)}
40.486%{transform:translateY(-8500px)}
40.560%{transform:translateY(-8840px)}
41.982%{transform:translateY(-9180px)}
58.960%{transform:translateY(-9520px)}
60.835%{transform:translateY(-9860px)}
70.950%{transform:translateY(-10200px)}
72.187%{transform:translateY(-10540px)}
72.224%{transform:translateY(-10880px)}
72.437%{transform:translateY(-11220px)}
72.474%{transform:translateY(-11560px)}
84.066%{transform:translateY(-11900px)}
85.840%{transform:translateY(-12240px)}
86.643%{transform:translateY(-12580px)}
87.752%{transform:translateY(-12920px)}
90.717%{transform:translateY(-13260px)}
90.763%{transform:translateY(-13600px)}
100.000%{transform:translateY(-13600px)}
            }

            #screen_view {
                animation-duration: 10826ms;
                animation-iteration-count:infinite;
                animation-name:roll;
                animation-timing-function: steps(1,end);
                animation-fill-mode: forwards;
            }
        ]]></style>
        <style type="text/css" id="user-style">
            /* The colors defined below are the default 16 colors used for rendering text of the terminal. Adjust
               them as needed.
               PowerShell colors based on https://en.wikipedia.org/wiki/ANSI_escape_code#Colors */
            .foreground {fill: #cccccc;}
            .background {fill: #0c0c0c;}
            .color0 {fill: #0c0c0c;}
            .color1 {fill: #c50f1f;}
            .color2 {fill: #13a10e;}
            .color3 {fill: #c19c00;}
            .color4 {fill: #0037da;}
            .color5 {fill: #881798;}
            .color6 {fill: #3a96dd;}
            .color7 {fill: #cccccc;}
            .color8 {fill: #767676;}
            .color9 {fill: #e74856;}
            .color10 {fill: #16c60c;}
            .color11 {fill: #f9f1a5;}
            .color12 {fill: #3b78ff;}
            .color13 {fill: #b4009e;}
            .color14 {fill: #61d6d6;}
            .color15 {fill: #f2f2f2;}
        </style>
    </defs>
    <svg id="screen" width="984" height="306" viewBox="0 0 984 306" preserveAspectRatio="xMidYMin slice">
    <rect class="background" height="100%" width="100%" x="0" y="0"/><defs><g id="g1"><text x="0" textLength="8" class="background"> </text><text x="8" textLength="976" class="foreground">                                                                                                                          </text></g><g id="g2"><text x="0" textLength="152" class="color0"> ~/my-cool-project </text><text x="152" textLength="8" class="color4">&#57520;</text><text x="160" textLength="8" class="foreground"> </text><text x="168" textLength="8" class="background"> </text><text x="176" textLength="808" class="foreground">                                                                                                     </text></g><g id="g3"><text x="0" textLength="152" class="color0"> ~/my-cool-project </text><text x="152" textLength="8" class="color4">&#57520;</text><text x="160" textLength="16" class="foreground"> l</text><text x="176" textLength="8" class="background"> </text><text x="184" textLength="800" class="foreground">                                                                                                    </text></g><g id="g4"><text x="0" textLength="152" class="color0"> ~/my-cool-project </text><text x="152" textLength="8" class="color4">&#57520;</text><text x="160" textLength="24" class="foreground"> ls</text><text x="184" textLength="8" class="background"> </text><text x="192" textLength="792" class="foreground">                                                                                                   </text></g><g id="g5"><text x="0" textLength="152" class="color0"> ~/my-cool-project </text><text x="152" textLength="8" class="color4">&#57520;</text><text x="160" textLength="32" class="foreground"> ls </text><text x="192" textLength="8" class="background"> </text><text x="200" textLength="784" class="foreground">                                                                                                  </text></g><g id="g6"><text x="0" textLength="152" class="color0"> ~/my-cool-project </text><text x="152" textLength="8" class="color4">&#57520;</text><text x="160" textLength="40" class="foreground"> ls -</text><text x="200" textLength="8" class="background"> </text><text x="208" textLength="776" class="foreground">                                                                                                 </text></g><g id="g7"><text x="0" textLength="152" class="color0"> ~/my-cool-project </text><text x="152" textLength="8" class="color4">&#57520;</text><text x="160" textLength="48" class="foreground"> ls -a</text><text x="208" textLength="8" class="background"> </text><text x="216" textLength="768" class="foreground">                                                                                                </text></g><g id="g8"><text x="0" textLength="152" class="color0"> ~/my-cool-project </text><text x="152" textLength="8" class="color4">&#57520;</text><text x="160" textLength="824" class="foreground"> ls -a                                                                                                 </text></g><g id="g9"><text x="0" textLength="8" class="background"> </text></g><g id="g10"><text x="0" textLength="8" font-weight="bold" class="color14">.</text><text x="8" textLength="160" class="foreground">                    </text><text x="168" textLength="16" font-weight="bold" class="color14">..</text><text x="184" textLength="312" class="foreground">                   .enval.manifest.yaml</text></g><g id="g11"><text x="0" textLength="152" class="color0"> ~/my-cool-project </text><text x="152" textLength="8" class="color4">&#57520;</text><text x="160" textLength="16" class="foreground"> e</text><text x="176" textLength="8" class="background"> </text><text x="184" textLength="800" class="foreground">                                                                                                    </text></g><g id="g12"><text x="0" textLength="152" class="color0"> ~/my-cool-project </text><text x="152" textLength="8" class="color4">&#57520;</text><text x="160" textLength="24" class="foreground"> en</text><text x="184" textLength="8" class="background"> </text><text x="192" textLength="792" class="foreground">                                                                                                   </text></g><g id="g13"><text x="0" textLength="152" class="color0"> ~/my-cool-project </text><text x="152" textLength="8" class="color4">&#57520;</text><text x="160" textLength="32" class="foreground"> env</text><text x="192" textLength="8" class="background"> </text><text x="200" textLength="784" class="foreground">                                                                                                  </text></g><g id="g14"><text x="0" textLength="152" class="color0"> ~/my-cool-project </text><text x="152" textLength="8" class="color4">&#57520;</text><text x="160" textLength="40" class="foreground"> enva</text><text x="200" textLength="8" class="background"> </text><text x="208" textLength="776" class="foreground">                                                                                                 </text></g><g id="g15"><text x="0" textLength="152" class="color0"> ~/my-cool-project </text><text x="152" textLength="8" class="color4">&#57520;</text><text x="160" textLength="48" class="foreground"> enval</text><text x="208" textLength="8" class="background"> </text><text x="216" textLength="768" class="foreground">                                                                                                </text></g><g id="g16"><text x="0" textLength="152" class="color0"> ~/my-cool-project </text><text x="152" textLength="8" class="color4">&#57520;</text><text x="160" textLength="824" class="foreground"> enval                                                                                                 </text></g><g id="g17"><text x="0" textLength="8" class="color2">&#10004;</text><text x="8" textLength="120" class="foreground"> java(openjdk):</text></g><g id="g18"><text x="0" textLength="32" class="foreground">    </text><text x="32" textLength="8" class="color2">&#10004;</text><text x="40" textLength="216" class="foreground"> version(&gt;= 11.0.0): 11.0.2</text></g><g id="g19"><text x="0" textLength="8" class="color2">&#10004;</text><text x="8" textLength="32" class="foreground"> go:</text></g><g id="g20"><text x="0" textLength="32" class="foreground">    </text><text x="32" textLength="8" class="color2">&#10004;</text><text x="40" textLength="184" class="foreground"> version(&gt;= 1.14): 1.14</text></g><g id="g21"><text x="0" textLength="8" class="color2">&#10004;</text><text x="8" textLength="88" class="foreground"> gotestsum:</text></g><g id="g22"><text x="0" textLength="32" class="foreground">    </text><text x="32" textLength="8" class="color2">&#10004;</text><text x="40" textLength="192" class="foreground"> version(= 0.4.0): 0.4.0</text></g><g id="g23"><text x="0" textLength="8" class="color1">!</text><text x="8" textLength="128" class="foreground"> golangci-lint: </text></g><g id="g24"><text x="0" textLength="32" class="foreground">    </text><text x="32" textLength="8" class="color1">!</text><text x="40" textLength="208" class="foreground"> version(= 1.23.8): 1.26.0</text></g><g id="g25"><text x="0" textLength="8" class="color2">&#10004;</text><text x="8" textLength="48" class="foreground"> node:</text></g><g id="g26"><text x="0" textLength="32" class="foreground">    </text><text x="32" textLength="8" class="color2">&#10004;</text><text x="40" textLength="232" class="foreground"> version(&gt;= 12.13.1): 12.13.1</text></g><g id="g27"><text x="0" textLength="8" class="color2">&#10004;</text><text x="8" textLength="40" class="foreground"> npm:</text></g><g id="g28"><text x="0" textLength="32" class="foreground">    </text><text x="32" textLength="8" class="color2">&#10004;</text><text x="40" textLength="216" class="foreground"> version(&gt;= 6.12.1): 6.12.1</text></g><g id="g29"><text x="0" textLength="8" class="color2">&#10004;</text><text x="8" textLength="72" class="foreground"> truffle:</text></g><g id="g30"><text x="0" textLength="32" class="foreground">    </text><text x="32" textLength="8" class="color2">&#10004;</text><text x="40" textLength="216" class="foreground"> version(&gt;= 5.1.13): 5.1.13</text></g><g id="g31"><text x="0" textLength="32" class="foreground">    </text><text x="32" textLength="8" class="color2">&#10004;</text><text x="40" textLength="224" class="foreground"> solidity(&gt;= 0.5.16): 0.5.16</text></g><g id="g32"><text x="0" textLength="8" class="color2">&#10004;</text><text x="8" textLength="88" class="foreground"> terraform:</text></g><g id="g33"><text x="0" textLength="32" class="foreground">    </text><text x="32" textLength="8" class="color2">&#10004;</text><text x="40" textLength="232" class="foreground"> version(&gt;= 0.12.24): 0.12.24</text></g><g id="g34"><text x="0" textLength="8" class="color2">&#10004;</text><text x="8" textLength="152" class="foreground"> openapi-generator:</text></g><g id="g35"><text x="0" textLength="32" class="foreground">    </text><text x="32" textLength="8" class="color2">&#10004;</text><text x="40" textLength="200" class="foreground"> version(&gt;= 4.3.0): 4.3.1</text></g><g id="g36"><text x="0" textLength="8" class="color2">&#10004;</text><text x="8" textLength="104" class="foreground"> swagger-cli:</text></g><g id="g37"><text x="0" textLength="32" class="foreground">    </text><text x="32" textLength="8" class="color2">&#10004;</text><text x="40" textLength="184" class="foreground"> version(&gt;= 4.0): 4.0.2</text></g><g id="g38"><text x="0" textLength="152" class="color0"> ~/my-cool-project </text><text x="152" textLength="8" class="color4">&#57520;</text><text x="160" textLength="24" class="foreground"> ex</text><text x="184" textLength="8" class="background"> </text><text x="192" textLength="792" class="foreground">                                                                                                   </text></g><g id="g39"><text x="0" textLength="152" class="color0"> ~/my-cool-project </text><text x="152" textLength="8" class="color4">&#57520;</text><text x="160" textLength="32" class="foreground"> exi</text><text x="192" textLength="8" class="background"> </text><text x="200" textLength="784" class="foreground">                                                                                                  </text></g><g id="g40"><text x="0" textLength="152" class="color0"> ~/my-cool-project </text><text x="152" textLength="8" class="color4">&#57520;</text><text x="160" textLength="40" class="foreground"> exit</text><text x="200" textLength="8" class="background"> </text><text x="208" textLength="776" class="foreground">                                                                                                 </text></g><g id="g41"><text x="0" textLength="152" class="color0"> ~/my-cool-project </text><text x="152" textLength="8" class="color4">&#57520;</text><text x="160" textLength="824" class="foreground"> exit                                                                                                  </text></g></defs><g id="screen_view"><g><rect x="0" y="0" width="8" height="17" class="foreground"/><use xlink:href="#g1" y="0"/></g><g><rect x="0" y="340" width="152" height="17" class="color4"/><rect x="168" y="340" width="8" height="17" class="foreground"/><use xlink:href="#g2" y="340"/></g><g><rect x="0" y="680" width="152" height="17" class="color4"/><rect x="168" y="680" width="8" height="17" class="foreground"/><use xlink:href="#g2" y="680"/></g><g><rect x="0" y="1020" width="152" height="17" class="color4"/><rect x="176" y="1020" width="8" height="17" class="foreground"/><use xlink:href="#g3" y="1020"/></g><g><rect x="0" y="1360" width="152" height="17" class="color4"/><rect x="184" y="1360" width="8" height="17" class="foreground"/><use xlink:href="#g4" y="1360"/></g><g><rect x="0" y="1700" width="152" height="17" class="color4"/><rect x="192" y="1700" width="8" height="17" class="foreground"/><use xlink:href="#g5" y="1700"/></g><g><rect x="0" y="2040" width="152" height="17" class="color4"/><rect x="200" y="2040" width="8" height="17" class="foreground"/><use xlink:href="#g6" y="2040"/></g><g><rect x="0" y="2380" width="152" height="17" class="color4"/><rect x="208" y="2380" width="8" height="17" class="foreground"/><use xlink:href="#g7" y="2380"/></g><g><rect x="0" y="2720" width="152" height="17" class="color4"/><rect x="208" y="2720" width="8" height="17" class="foreground"/><use xlink:href="#g7" y="2720"/></g><g><rect x="0" y="3060" width="152" height="17" class="color4"/><use xlink:href="#g8" y="3060"/><rect x="0" y="3077" width="8" height="17" class="foreground"/><use xlink:href="#g9" y="3077"/></g><g><rect x="0" y="3400" width="152" height="17" class="color4"/><use xlink:href="#g8" y="3400"/><rect x="0" y="3417" width="8" height="17" class="foreground"/><use xlink:href="#g9" y="3417"/></g><g><rect x="0" y="3740" width="152" height="17" class="color4"/><use xlink:href="#g8" y="3740"/><use xlink:href="#g10" y="3757"/><rect x="0" y="3774" width="8" height="17" class="foreground"/><use xlink:href="#g9" y="3774"/></g><g><rect x="0" y="4080" width="152" height="17" class="color4"/><use xlink:href="#g8" y="4080"/><use xlink:href="#g10" y="4097"/><rect x="0" y="4114" width="8" height="17" class="foreground"/><use xlink:href="#g1" y="4114"/></g><g><rect x="0" y="4420" width="152" height="17" class="color4"/><use xlink:href="#g8" y="4420"/><use xlink:href="#g10" y="4437"/><rect x="0" y="4454" width="152" height="17" class="color4"/><rect x="168" y="4454" width="8" height="17" class="foreground"/><use xlink:href="#g2" y="4454"/></g><g><rect x="0" y="4760" width="152" height="17" class="color4"/><use xlink:href="#g8" y="4760"/><use xlink:href="#g10" y="4777"/><rect x="0" y="4794" width="152" height="17" class="color4"/><rect x="168" y="4794" width="8" height="17" class="foreground"/><use xlink:href="#g2" y="4794"/></g><g><rect x="0" y="5100" width="152" height="17" class="color4"/><use xlink:href="#g8" y="5100"/><use xlink:href="#g10" y="5117"/><rect x="0" y="5134" width="152" height="17" class="color4"/><rect x="176" y="5134" width="8" height="17" class="foreground"/><use xlink:href="#g11" y="5134"/></g><g><rect x="0" y="5440" width="152" height="17" class="color4"/><use xlink:href="#g8" y="5440"/><use xlink:href="#g10" y="5457"/><rect x="0" y="5474" width="152" height="17" class="color4"/><rect x="184" y="5474" width="8" height="17" class="foreground"/><use xlink:href="#g12" y="5474"/></g><g><rect x="0" y="5780" width="152" height="17" class="color4"/><use xlink:href="#g8" y="5780"/><use xlink:href="#g10" y="5797"/><rect x="0" y="5814" width="152" height="17" class="color4"/><rect x="192" y="5814" width="8" height="17" class="foreground"/><use xlink:href="#g13" y="5814"/></g><g><rect x="0" y="6120" width="152" height="17" class="color4"/><use xlink:href="#g8" y="6120"/><use xlink:href="#g10" y="6137"/><rect x="0" y="6154" width="152" height="17" class="color4"/><rect x="200" y="6154" width="8" height="17" class="foreground"/><use xlink:href="#g14" y="6154"/></g><g><rect x="0" y="6460" width="152" height="17" class="color4"/><use xlink:href="#g8" y="6460"/><use xlink:href="#g10" y="6477"/><rect x="0" y="6494" width="152" height="17" class="color4"/><rect x="208" y="6494" width="8" height="17" class="foreground"/><use xlink:href="#g15" y="6494"/></g><g><rect x="0" y="6800" width="152" height="17" class="color4"/><use xlink:href="#g8" y="6800"/><use xlink:href="#g10" y="6817"/><rect x="0" y="6834" width="152" height="17" class="color4"/><use xlink:href="#g16" y="6834"/><rect x="0" y="6851" width="8" height="17" class="foreground"/><use xlink:href="#g9" y="6851"/></g><g><rect x="0" y="7140" width="152" height="17" class="color4"/><use xlink:href="#g8" y="7140"/><use xlink:href="#g10" y="7157"/><rect x="0" y="7174" width="152" height="17" class="color4"/><use xlink:href="#g16" y="7174"/><rect x="0" y="7191" width="8" height="17" class="foreground"/><use xlink:href="#g9" y="7191"/></g><g><rect x="0" y="7480" width="152" height="17" class="color4"/><use xlink:href="#g8" y="7480"/><use xlink:href="#g10" y="7497"/><rect x="0" y="7514" width="152" height="17" class="color4"/><use xlink:href="#g16" y="7514"/><use xlink:href="#g17" y="7531"/><use xlink:href="#g18" y="7548"/><rect x="0" y="7565" width="8" height="17" class="foreground"/><use xlink:href="#g9" y="7565"/></g><g><rect x="0" y="7820" width="152" height="17" class="color4"/><use xlink:href="#g8" y="7820"/><use xlink:href="#g10" y="7837"/><rect x="0" y="7854" width="152" height="17" class="color4"/><use xlink:href="#g16" y="7854"/><use xlink:href="#g17" y="7871"/><use xlink:href="#g18" y="7888"/><use xlink:href="#g19" y="7905"/><use xlink:href="#g20" y="7922"/><rect x="0" y="7939" width="8" height="17" class="foreground"/><use xlink:href="#g9" y="7939"/></g><g><rect x="0" y="8160" width="152" height="17" class="color4"/><use xlink:href="#g8" y="8160"/><use xlink:href="#g10" y="8177"/><rect x="0" y="8194" width="152" height="17" class="color4"/><use xlink:href="#g16" y="8194"/><use xlink:href="#g17" y="8211"/><use xlink:href="#g18" y="8228"/><use xlink:href="#g19" y="8245"/><use xlink:href="#g20" y="8262"/><use xlink:href="#g21" y="8279"/><use xlink:href="#g22" y="8296"/><rect x="0" y="8313" width="8" height="17" class="foreground"/><use xlink:href="#g9" y="8313"/></g><g><rect x="0" y="8500" width="152" height="17" class="color4"/><use xlink:href="#g8" y="8500"/><use xlink:href="#g10" y="8517"/><rect x="0" y="8534" width="152" height="17" class="color4"/><use xlink:href="#g16" y="8534"/><use xlink:href="#g17" y="8551"/><use xlink:href="#g18" y="8568"/><use xlink:href="#g19" y="8585"/><use xlink:href="#g20" y="8602"/><use xlink:href="#g21" y="8619"/><use xlink:href="#g22" y="8636"/><use xlink:href="#g23" y="8653"/><use xlink:href="#g24" y="8670"/><rect x="0" y="8687" width="8" height="17" class="foreground"/><use xlink:href="#g9" y="8687"/></g><g><rect x="0" y="8840" width="152" height="17" class="color4"/><use xlink:href="#g8" y="8840"/><use xlink:href="#g10" y="8857"/><rect x="0" y="8874" width="152" height="17" class="color4"/><use xlink:href="#g16" y="8874"/><use xlink:href="#g17" y="8891"/><use xlink:href="#g18" y="8908"/><use xlink:href="#g19" y="8925"/><use xlink:href="#g20" y="8942"/><use xlink:href="#g21" y="8959"/><use xlink:href="#g22" y="8976"/><use xlink:href="#g23" y="8993"/><use xlink:href="#g24" y="9010"/><use xlink:href="#g25" y="9027"/><use xlink:href="#g26" y="9044"/><rect x="0" y="9061" width="8" height="17" class="foreground"/><use xlink:href="#g9" y="9061"/></g><g><rect x="0" y="9180" width="152" height="17" class="color4"/><use xlink:href="#g8" y="9180"/><use xlink:href="#g10" y="9197"/><rect x="0" y="9214" width="152" height="17" class="color4"/><use xlink:href="#g16" y="9214"/><use xlink:href="#g17" y="9231"/><use xlink:href="#g18" y="9248"/><use xlink:href="#g19" y="9265"/><use xlink:href="#g20" y="9282"/><use xlink:href="#g21" y="9299"/><use xlink:href="#g22" y="9316"/><use xlink:href="#g23" y="9333"/><use xlink:href="#g24" y="9350"/><use xlink:href="#g25" y="9367"/><use xlink:href="#g26" y="9384"/><use xlink:href="#g27" y="9401"/><use xlink:href="#g28" y="9418"/><rect x="0" y="9435" width="8" height="17" class="foreground"/><use xlink:href="#g9" y="9435"/></g><g><use xlink:href="#g10" y="9520"/><rect x="0" y="9537" width="152" height="17" class="color4"/><use xlink:href="#g16" y="9537"/><use xlink:href="#g17" y="9554"/><use xlink:href="#g18" y="9571"/><use xlink:href="#g19" y="9588"/><use xlink:href="#g20" y="9605"/><use xlink:href="#g21" y="9622"/><use xlink:href="#g22" y="9639"/><use xlink:href="#g23" y="9656"/><use xlink:href="#g24" y="9673"/><use xlink:href="#g25" y="9690"/><use xlink:href="#g26" y="9707"/><use xlink:href="#g27" y="9724"/><use xlink:href="#g28" y="9741"/><use xlink:href="#g29" y="9758"/><use xlink:href="#g30" y="9775"/><use xlink:href="#g31" y="9792"/><rect x="0" y="9809" width="8" height="17" class="foreground"/><use xlink:href="#g9" y="9809"/></g><g><use xlink:href="#g17" y="9860"/><use xlink:href="#g18" y="9877"/><use xlink:href="#g19" y="9894"/><use xlink:href="#g20" y="9911"/><use xlink:href="#g21" y="9928"/><use xlink:href="#g22" y="9945"/><use xlink:href="#g23" y="9962"/><use xlink:href="#g24" y="9979"/><use xlink:href="#g25" y="9996"/><use xlink:href="#g26" y="10013"/><use xlink:href="#g27" y="10030"/><use xlink:href="#g28" y="10047"/><use xlink:href="#g29" y="10064"/><use xlink:href="#g30" y="10081"/><use xlink:href="#g31" y="10098"/><use xlink:href="#g32" y="10115"/><use xlink:href="#g33" y="10132"/><rect x="0" y="10149" width="8" height="17" class="foreground"/><use xlink:href="#g9" y="10149"/></g><g><use xlink:href="#g19" y="10200"/><use xlink:href="#g20" y="10217"/><use xlink:href="#g21" y="10234"/><use xlink:href="#g22" y="10251"/><use xlink:href="#g23" y="10268"/><use xlink:href="#g24" y="10285"/><use xlink:href="#g25" y="10302"/><use xlink:href="#g26" y="10319"/><use xlink:href="#g27" y="10336"/><use xlink:href="#g28" y="10353"/><use xlink:href="#g29" y="10370"/><use xlink:href="#g30" y="10387"/><use xlink:href="#g31" y="10404"/><use xlink:href="#g32" y="10421"/><use xlink:href="#g33" y="10438"/><use xlink:href="#g34" y="10455"/><use xlink:href="#g35" y="10472"/><rect x="0" y="10489" width="8" height="17" class="foreground"/><use xlink:href="#g9" y="10489"/></g><g><use xlink:href="#g21" y="10540"/><use xlink:href="#g22" y="10557"/><use xlink:href="#g23" y="10574"/><use xlink:href="#g24" y="10591"/><use xlink:href="#g25" y="10608"/><use xlink:href="#g26" y="10625"/><use xlink:href="#g27" y="10642"/><use xlink:href="#g28" y="10659"/><use xlink:href="#g29" y="10676"/><use xlink:href="#g30" y="10693"/><use xlink:href="#g31" y="10710"/><use xlink:href="#g32" y="10727"/><use xlink:href="#g33" y="10744"/><use xlink:href="#g34" y="10761"/><use xlink:href="#g35" y="10778"/><use xlink:href="#g36" y="10795"/><use xlink:href="#g37" y="10812"/><rect x="0" y="10829" width="8" height="17" class="foreground"/><use xlink:href="#g9" y="10829"/></g><g><use xlink:href="#g21" y="10880"/><use xlink:href="#g22" y="10897"/><use xlink:href="#g23" y="10914"/><use xlink:href="#g24" y="10931"/><use xlink:href="#g25" y="10948"/><use xlink:href="#g26" y="10965"/><use xlink:href="#g27" y="10982"/><use xlink:href="#g28" y="10999"/><use xlink:href="#g29" y="11016"/><use xlink:href="#g30" y="11033"/><use xlink:href="#g31" y="11050"/><use xlink:href="#g32" y="11067"/><use xlink:href="#g33" y="11084"/><use xlink:href="#g34" y="11101"/><use xlink:href="#g35" y="11118"/><use xlink:href="#g36" y="11135"/><use xlink:href="#g37" y="11152"/><rect x="0" y="11169" width="8" height="17" class="foreground"/><use xlink:href="#g1" y="11169"/></g><g><use xlink:href="#g21" y="11220"/><use xlink:href="#g22" y="11237"/><use xlink:href="#g23" y="11254"/><use xlink:href="#g24" y="11271"/><use xlink:href="#g25" y="11288"/><use xlink:href="#g26" y="11305"/><use xlink:href="#g27" y="11322"/><use xlink:href="#g28" y="11339"/><use xlink:href="#g29" y="11356"/><use xlink:href="#g30" y="11373"/><use xlink:href="#g31" y="11390"/><use xlink:href="#g32" y="11407"/><use xlink:href="#g33" y="11424"/><use xlink:href="#g34" y="11441"/><use xlink:href="#g35" y="11458"/><use xlink:href="#g36" y="11475"/><use xlink:href="#g37" y="11492"/><rect x="0" y="11509" width="152" height="17" class="color4"/><rect x="168" y="11509" width="8" height="17" class="foreground"/><use xlink:href="#g2" y="11509"/></g><g><use xlink:href="#g21" y="11560"/><use xlink:href="#g22" y="11577"/><use xlink:href="#g23" y="11594"/><use xlink:href="#g24" y="11611"/><use xlink:href="#g25" y="11628"/><use xlink:href="#g26" y="11645"/><use xlink:href="#g27" y="11662"/><use xlink:href="#g28" y="11679"/><use xlink:href="#g29" y="11696"/><use xlink:href="#g30" y="11713"/><use xlink:href="#g31" y="11730"/><use xlink:href="#g32" y="11747"/><use xlink:href="#g33" y="11764"/><use xlink:href="#g34" y="11781"/><use xlink:href="#g35" y="11798"/><use xlink:href="#g36" y="11815"/><use xlink:href="#g37" y="11832"/><rect x="0" y="11849" width="152" height="17" class="color4"/><rect x="168" y="11849" width="8" height="17" class="foreground"/><use xlink:href="#g2" y="11849"/></g><g><use xlink:href="#g21" y="11900"/><use xlink:href="#g22" y="11917"/><use xlink:href="#g23" y="11934"/><use xlink:href="#g24" y="11951"/><use xlink:href="#g25" y="11968"/><use xlink:href="#g26" y="11985"/><use xlink:href="#g27" y="12002"/><use xlink:href="#g28" y="12019"/><use xlink:href="#g29" y="12036"/><use xlink:href="#g30" y="12053"/><use xlink:href="#g31" y="12070"/><use xlink:href="#g32" y="12087"/><use xlink:href="#g33" y="12104"/><use xlink:href="#g34" y="12121"/><use xlink:href="#g35" y="12138"/><use xlink:href="#g36" y="12155"/><use xlink:href="#g37" y="12172"/><rect x="0" y="12189" width="152" height="17" class="color4"/><rect x="176" y="12189" width="8" height="17" class="foreground"/><use xlink:href="#g11" y="12189"/></g><g><use xlink:href="#g21" y="12240"/><use xlink:href="#g22" y="12257"/><use xlink:href="#g23" y="12274"/><use xlink:href="#g24" y="12291"/><use xlink:href="#g25" y="12308"/><use xlink:href="#g26" y="12325"/><use xlink:href="#g27" y="12342"/><use xlink:href="#g28" y="12359"/><use xlink:href="#g29" y="12376"/><use xlink:href="#g30" y="12393"/><use xlink:href="#g31" y="12410"/><use xlink:href="#g32" y="12427"/><use xlink:href="#g33" y="12444"/><use xlink:href="#g34" y="12461"/><use xlink:href="#g35" y="12478"/><use xlink:href="#g36" y="12495"/><use xlink:href="#g37" y="12512"/><rect x="0" y="12529" width="152" height="17" class="color4"/><rect x="184" y="12529" width="8" height="17" class="foreground"/><use xlink:href="#g38" y="12529"/></g><g><use xlink:href="#g21" y="12580"/><use xlink:href="#g22" y="12597"/><use xlink:href="#g23" y="12614"/><use xlink:href="#g24" y="12631"/><use xlink:href="#g25" y="12648"/><use xlink:href="#g26" y="12665"/><use xlink:href="#g27" y="12682"/><use xlink:href="#g28" y="12699"/><use xlink:href="#g29" y="12716"/><use xlink:href="#g30" y="12733"/><use xlink:href="#g31" y="12750"/><use xlink:href="#g32" y="12767"/><use xlink:href="#g33" y="12784"/><use xlink:href="#g34" y="12801"/><use xlink:href="#g35" y="12818"/><use xlink:href="#g36" y="12835"/><use xlink:href="#g37" y="12852"/><rect x="0" y="12869" width="152" height="17" class="color4"/><rect x="192" y="12869" width="8" height="17" class="foreground"/><use xlink:href="#g39" y="12869"/></g><g><use xlink:href="#g21" y="12920"/><use xlink:href="#g22" y="12937"/><use xlink:href="#g23" y="12954"/><use xlink:href="#g24" y="12971"/><use xlink:href="#g25" y="12988"/><use xlink:href="#g26" y="13005"/><use xlink:href="#g27" y="13022"/><use xlink:href="#g28" y="13039"/><use xlink:href="#g29" y="13056"/><use xlink:href="#g30" y="13073"/><use xlink:href="#g31" y="13090"/><use xlink:href="#g32" y="13107"/><use xlink:href="#g33" y="13124"/><use xlink:href="#g34" y="13141"/><use xlink:href="#g35" y="13158"/><use xlink:href="#g36" y="13175"/><use xlink:href="#g37" y="13192"/><rect x="0" y="13209" width="152" height="17" class="color4"/><rect x="200" y="13209" width="8" height="17" class="foreground"/><use xlink:href="#g40" y="13209"/></g><g><use xlink:href="#g22" y="13260"/><use xlink:href="#g23" y="13277"/><use xlink:href="#g24" y="13294"/><use xlink:href="#g25" y="13311"/><use xlink:href="#g26" y="13328"/><use xlink:href="#g27" y="13345"/><use xlink:href="#g28" y="13362"/><use xlink:href="#g29" y="13379"/><use xlink:href="#g30" y="13396"/><use xlink:href="#g31" y="13413"/><use xlink:href="#g32" y="13430"/><use xlink:href="#g33" y="13447"/><use xlink:href="#g34" y="13464"/><use xlink:href="#g35" y="13481"/><use xlink:href="#g36" y="13498"/><use xlink:href="#g37" y="13515"/><rect x="0" y="13532" width="152" height="17" class="color4"/><use xlink:href="#g41" y="13532"/><rect x="0" y="13549" width="8" height="17" class="foreground"/><use xlink:href="#g9" y="13549"/></g><g><use xlink:href="#g22" y="13600"/><use xlink:href="#g23" y="13617"/><use xlink:href="#g24" y="13634"/><use xlink:href="#g25" y="13651"/><use xlink:href="#g26" y="13668"/><use xlink:href="#g27" y="13685"/><use xlink:href="#g28" y="13702"/><use xlink:href="#g29" y="13719"/><use xlink:href="#g30" y="13736"/><use xlink:href="#g31" y="13753"/><use xlink:href="#g32" y="13770"/><use xlink:href="#g33" y="13787"/><use xlink:href="#g34" y="13804"/><use xlink:href="#g35" y="13821"/><use xlink:href="#g36" y="13838"/><use xlink:href="#g37" y="13855"/><rect x="0" y="13872" width="152" height="17" class="color4"/><use xlink:href="#g41" y="13872"/><rect x="0" y="13889" width="8" height="17" class="foreground"/><use xlink:href="#g9" y="13889"/></g></g></svg>
</svg>